<?xml version="1.0" encoding="UTF-8"?>
<svg id="Layer_2" data-name="Layer 2" xmlns="http://www.w3.org/2000/svg" viewBox="0 0 94.85 54.85">
  <defs>
    <style>
      .cls-1 {
        fill: #eff4f2;
      }

      .cls-2 {
        fill: #f57e20;
      }
    </style>
  </defs>
  <g id="Layer_1-2" data-name="Layer 1">
    <g>
      <path class="cls-1" d="M0,40h14.85v14.85H0v-14.85Z"/>
      <path class="cls-1" d="M0,20h14.85v14.85H0v-14.85Z"/>
      <path class="cls-1" d="M0,0h14.85v14.85H0V0Z"/>
      <path class="cls-1" d="M20,40h14.85v14.85h-14.85v-14.85Z"/>
      <path class="cls-1" d="M20,20h14.85v14.85h-14.85v-14.85Z"/>
      <path class="cls-1" d="M20,0h14.85v14.85h-14.85V0Z"/>
      <path class="cls-1" d="M40,40h14.85v14.85h-14.85v-14.85Z"/>
      <path class="cls-1" d="M40,20h14.85v14.85h-14.85v-14.85Z"/>
      <path class="cls-2" d="M40,0h14.85v14.85h-14.85V0Z"/>
      <path class="cls-2" d="M60,40h14.85v14.85h-14.85v-14.85Z"/>
      <path class="cls-2" d="M60,20h14.85v14.85h-14.85v-14.85Z"/>
      <path class="cls-1" d="M60,0h14.85v14.85h-14.85V0Z"/>
      <path class="cls-1" d="M80,40h14.85v14.85h-14.85v-14.85Z"/>
      <path class="cls-1" d="M80,20h14.85v14.85h-14.85v-14.85Z"/>
      <path class="cls-1" d="M80,0h14.85v14.85h-14.85V0Z"/>
    </g>
  </g>
</svg>